<svg width="1006" height="458" xmlns="http://www.w3.org/2000/svg" xmlns:xlink="http://www.w3.org/1999/xlink" overflow="hidden"><defs><clipPath id="clip0"><path d="M91 40 1097 40 1097 498 91 498Z" fill-rule="evenodd" clip-rule="evenodd"/></clipPath></defs><g clip-path="url(#clip0)" transform="translate(-91 -40)"><path d="M444.444 40.8888 595.625 40.8888 595.625 71.125 444.444 71.125Z" fill="#DAE3F3" fill-rule="evenodd"/><path d="M444.444 71.125 520.035 71.125 520.035 101.361 444.444 101.361Z" fill="#F2F2F2" fill-rule="evenodd"/><path d="M520.035 70.4584 520.035 102.028" stroke="#000000" stroke-width="1.33333" stroke-linejoin="round" stroke-miterlimit="10" fill="none" fill-rule="evenodd"/><path d="M443.778 71.125 596.292 71.125" stroke="#000000" stroke-width="1.33333" stroke-linejoin="round" stroke-miterlimit="10" fill="none" fill-rule="evenodd"/><path d="M444.444 40.2222 444.444 102.028" stroke="#000000" stroke-width="1.33333" stroke-linejoin="round" stroke-miterlimit="10" fill="none" fill-rule="evenodd"/><path d="M595.625 40.2222 595.625 102.028" stroke="#000000" stroke-width="1.33333" stroke-linejoin="round" stroke-miterlimit="10" fill="none" fill-rule="evenodd"/><path d="M443.778 40.8888 596.292 40.8888" stroke="#000000" stroke-width="1.33333" stroke-linejoin="round" stroke-miterlimit="10" fill="none" fill-rule="evenodd"/><path d="M443.778 101.361 596.292 101.361" stroke="#000000" stroke-width="1.33333" stroke-linejoin="round" stroke-miterlimit="10" fill="none" fill-rule="evenodd"/><text font-family="Times New Roman,Times New Roman_MSFontService,sans-serif" font-weight="400" font-size="16" transform="translate(506.898 61)">Trie<tspan x="-37.5753" y="31">root</tspan><tspan x="42.9319" y="31">…</tspan></text><path d="M444.444 125.222 595.625 125.222 595.625 155.458 444.444 155.458Z" fill="#DAE3F3" fill-rule="evenodd"/><path d="M444.444 155.458 520.035 155.458 520.035 185.695 444.444 185.695Z" fill="#F2F2F2" fill-rule="evenodd"/><path d="M520.035 154.792 520.035 186.361" stroke="#000000" stroke-width="1.33333" stroke-linejoin="round" stroke-miterlimit="10" fill="none" fill-rule="evenodd"/><path d="M443.778 155.458 596.292 155.458" stroke="#000000" stroke-width="1.33333" stroke-linejoin="round" stroke-miterlimit="10" fill="none" fill-rule="evenodd"/><path d="M444.444 124.555 444.444 186.361" stroke="#000000" stroke-width="1.33333" stroke-linejoin="round" stroke-miterlimit="10" fill="none" fill-rule="evenodd"/><path d="M595.625 124.555 595.625 186.361" stroke="#000000" stroke-width="1.33333" stroke-linejoin="round" stroke-miterlimit="10" fill="none" fill-rule="evenodd"/><path d="M443.778 125.222 596.292 125.222" stroke="#000000" stroke-width="1.33333" stroke-linejoin="round" stroke-miterlimit="10" fill="none" fill-rule="evenodd"/><path d="M443.778 185.695 596.292 185.695" stroke="#000000" stroke-width="1.33333" stroke-linejoin="round" stroke-miterlimit="10" fill="none" fill-rule="evenodd"/><text font-family="Times New Roman,Times New Roman_MSFontService,sans-serif" font-weight="400" font-size="16" transform="translate(487.565 146)">Trie<tspan x="30.2733" y="0">Node</tspan><tspan x="-26.7419" y="30">entries</tspan><tspan x="62.2653" y="30">…</tspan></text><path d="M444.444 209.555 595.625 209.555 595.625 239.792 444.444 239.792Z" fill="#DAE3F3" fill-rule="evenodd"/><path d="M444.444 239.792 520.035 239.792 520.035 270.028 444.444 270.028Z" fill="#F2F2F2" fill-rule="evenodd"/><path d="M520.035 239.125 520.035 270.695" stroke="#000000" stroke-width="1.33333" stroke-linejoin="round" stroke-miterlimit="10" fill="none" fill-rule="evenodd"/><path d="M443.778 239.792 596.292 239.792" stroke="#000000" stroke-width="1.33333" stroke-linejoin="round" stroke-miterlimit="10" fill="none" fill-rule="evenodd"/><path d="M444.444 208.889 444.444 270.695" stroke="#000000" stroke-width="1.33333" stroke-linejoin="round" stroke-miterlimit="10" fill="none" fill-rule="evenodd"/><path d="M595.625 208.889 595.625 270.695" stroke="#000000" stroke-width="1.33333" stroke-linejoin="round" stroke-miterlimit="10" fill="none" fill-rule="evenodd"/><path d="M443.778 209.555 596.292 209.555" stroke="#000000" stroke-width="1.33333" stroke-linejoin="round" stroke-miterlimit="10" fill="none" fill-rule="evenodd"/><path d="M443.778 270.028 596.292 270.028" stroke="#000000" stroke-width="1.33333" stroke-linejoin="round" stroke-miterlimit="10" fill="none" fill-rule="evenodd"/><text font-family="Times New Roman,Times New Roman_MSFontService,sans-serif" font-weight="400" font-size="16" transform="translate(501.368 230)">Array<tspan x="-32.5453" y="30">data</tspan><tspan x="48.4619" y="30">…</tspan></text><path d="M378.303 293.889 661.767 293.889 661.767 324.125 378.303 324.125Z" fill="#DAE3F3" fill-rule="evenodd"/><path d="M378.303 324.125 472.791 324.125 472.791 354.361 378.303 354.361Z" fill="#F2F2F2" fill-rule="evenodd"/><path d="M472.791 324.125 567.279 324.125 567.279 354.361 472.791 354.361Z" fill="#F2F2F2" fill-rule="evenodd"/><path d="M567.279 324.125 661.767 324.125 661.767 354.361 567.279 354.361Z" fill="#F2F2F2" fill-rule="evenodd"/><path d="M472.791 323.458 472.791 355.028" stroke="#000000" stroke-width="1.33333" stroke-linejoin="round" stroke-miterlimit="10" fill="none" fill-rule="evenodd"/><path d="M567.279 323.458 567.279 355.028" stroke="#000000" stroke-width="1.33333" stroke-linejoin="round" stroke-miterlimit="10" fill="none" fill-rule="evenodd"/><path d="M377.636 324.125 662.434 324.125" stroke="#000000" stroke-width="1.33333" stroke-linejoin="round" stroke-miterlimit="10" fill="none" fill-rule="evenodd"/><path d="M378.303 293.222 378.303 355.028" stroke="#000000" stroke-width="1.33333" stroke-linejoin="round" stroke-miterlimit="10" fill="none" fill-rule="evenodd"/><path d="M661.767 293.222 661.767 355.028" stroke="#000000" stroke-width="1.33333" stroke-linejoin="round" stroke-miterlimit="10" fill="none" fill-rule="evenodd"/><path d="M377.636 293.889 662.434 293.889" stroke="#000000" stroke-width="1.33333" stroke-linejoin="round" stroke-miterlimit="10" fill="none" fill-rule="evenodd"/><path d="M377.636 354.361 662.434 354.361" stroke="#000000" stroke-width="1.33333" stroke-linejoin="round" stroke-miterlimit="10" fill="none" fill-rule="evenodd"/><text font-family="Times New Roman,Times New Roman_MSFontService,sans-serif" font-weight="400" font-size="16" transform="translate(465.868 314)">Dictionary Entry<tspan x="-71.9048" y="31">headword</tspan><tspan x="20.1667" y="31">word class</tspan><tspan x="117.405" y="31">definition</tspan></text><path d="M444.444 378.222 595.625 378.222 595.625 408.458 444.444 408.458Z" fill="#DAE3F3" fill-rule="evenodd"/><path d="M444.444 408.458 520.035 408.458 520.035 438.695 444.444 438.695Z" fill="#F2F2F2" fill-rule="evenodd"/><path d="M520.035 407.792 520.035 439.361" stroke="#000000" stroke-width="1.33333" stroke-linejoin="round" stroke-miterlimit="10" fill="none" fill-rule="evenodd"/><path d="M443.778 408.458 596.292 408.458" stroke="#000000" stroke-width="1.33333" stroke-linejoin="round" stroke-miterlimit="10" fill="none" fill-rule="evenodd"/><path d="M444.444 377.555 444.444 439.361" stroke="#000000" stroke-width="1.33333" stroke-linejoin="round" stroke-miterlimit="10" fill="none" fill-rule="evenodd"/><path d="M595.625 377.555 595.625 439.361" stroke="#000000" stroke-width="1.33333" stroke-linejoin="round" stroke-miterlimit="10" fill="none" fill-rule="evenodd"/><path d="M443.778 378.222 596.292 378.222" stroke="#000000" stroke-width="1.33333" stroke-linejoin="round" stroke-miterlimit="10" fill="none" fill-rule="evenodd"/><path d="M443.778 438.695 596.292 438.695" stroke="#000000" stroke-width="1.33333" stroke-linejoin="round" stroke-miterlimit="10" fill="none" fill-rule="evenodd"/><text font-family="Times New Roman,Times New Roman_MSFontService,sans-serif" font-weight="400" font-size="16" transform="translate(500.452 399)">String<tspan x="-30.2953" y="30">text</tspan><tspan x="49.3786" y="30">…</tspan></text><path d="M444.444 461.889 444.444 493.458" stroke="#000000" stroke-width="1.33333" stroke-linejoin="round" stroke-miterlimit="10" fill="none" fill-rule="evenodd"/><path d="M595.625 461.889 595.625 493.458" stroke="#000000" stroke-width="1.33333" stroke-linejoin="round" stroke-miterlimit="10" fill="none" fill-rule="evenodd"/><path d="M443.778 462.555 596.292 462.555" stroke="#000000" stroke-width="1.33333" stroke-linejoin="round" stroke-miterlimit="10" fill="none" fill-rule="evenodd"/><path d="M443.778 492.792 596.292 492.792" stroke="#000000" stroke-width="1.33333" stroke-linejoin="round" stroke-miterlimit="10" fill="none" fill-rule="evenodd"/><text font-family="Times New Roman,Times New Roman_MSFontService,sans-serif" font-weight="400" font-size="16" transform="translate(456.035 483)">Character Sequence</text><path d="M0.127246-0.65441 2.48203-0.196536 4.76691 1.08031 6.93385 3.05025 8.81657 5.58218 10.3602 8.54089 11.5788 11.8116 12.3491 15.3422 12.6025 18.89 12.8525 22.39 12.8388 22.2954 13.5888 25.7329 13.5622 25.6423 14.7497 28.8298 14.7107 28.7442 16.2732 31.6192 16.155 31.4622 18.6314 33.8982 17.6963 34.8487 15.1492 32.3431 13.5167 29.3394 12.2962 26.0634 11.5259 22.5328 11.2725 18.985 11.0225 15.485 11.0362 15.5796 10.2862 12.1421 10.3128 12.2327 9.12528 9.04524 9.15894 9.12088 7.65894 6.24588 7.71502 6.3353 5.90252 3.8978 5.98905 3.99329 3.92655 2.11829 4.04979 2.20696 1.92479 1.01946 2.12275 1.09191-0.127246 0.65441ZM19.085 30.2589 23.875 37.8125 14.9582 37.1123Z" transform="matrix(-4.37114e-08 1 1 4.37114e-08 482.5 101.5)"/><path d="M0.127246-0.65441 2.48203-0.196536 4.76691 1.08031 6.93385 3.05025 8.81657 5.58218 10.3602 8.54089 11.5788 11.8116 12.3491 15.3422 12.6025 18.89 12.8525 22.39 12.8388 22.2954 13.5888 25.7329 13.5622 25.6423 14.7497 28.8298 14.7107 28.7442 16.2732 31.6192 16.155 31.4622 18.6314 33.8982 17.6963 34.8487 15.1492 32.3431 13.5167 29.3394 12.2962 26.0634 11.5259 22.5328 11.2725 18.985 11.0225 15.485 11.0362 15.5796 10.2862 12.1421 10.3128 12.2327 9.12528 9.04524 9.15894 9.12088 7.65894 6.24588 7.71502 6.3353 5.90252 3.8978 5.98905 3.99329 3.92655 2.11829 4.04979 2.20696 1.92479 1.01946 2.12275 1.09191-0.127246 0.65441ZM19.085 30.2589 23.875 37.8125 14.9582 37.1123Z" transform="matrix(-4.37114e-08 1 1 4.37114e-08 482.5 186.5)"/><path d="M0.127246-0.65441 2.48203-0.196536 4.76691 1.08031 6.93385 3.05025 8.81657 5.58218 10.3602 8.54089 11.5788 11.8116 12.3491 15.3422 12.6025 18.89 12.8525 22.39 12.8388 22.2954 13.5888 25.7329 13.5622 25.6423 14.7497 28.8298 14.7107 28.7442 16.2732 31.6192 16.155 31.4622 18.6314 33.8982 17.6963 34.8487 15.1492 32.3431 13.5167 29.3394 12.2962 26.0634 11.5259 22.5328 11.2725 18.985 11.0225 15.485 11.0362 15.5796 10.2862 12.1421 10.3128 12.2327 9.12528 9.04524 9.15894 9.12088 7.65894 6.24588 7.71502 6.3353 5.90252 3.8978 5.98905 3.99329 3.92655 2.11829 4.04979 2.20696 1.92479 1.01946 2.12275 1.09191-0.127246 0.65441ZM19.085 30.2589 23.875 37.8125 14.9582 37.1123Z" transform="matrix(-4.37114e-08 1 1 4.37114e-08 482.5 270.5)"/><path d="M0.127246-0.65441 2.48203-0.196536 4.76691 1.08031 6.93385 3.05025 8.81657 5.58218 10.3602 8.54089 11.5788 11.8116 12.3491 15.3422 12.6025 18.89 12.8525 22.39 12.8388 22.2954 13.5888 25.7329 13.5622 25.6423 14.7497 28.8298 14.7107 28.7442 16.2732 31.6192 16.155 31.4622 18.6314 33.8982 17.6963 34.8487 15.1492 32.3431 13.5167 29.3394 12.2962 26.0634 11.5259 22.5328 11.2725 18.985 11.0225 15.485 11.0362 15.5796 10.2862 12.1421 10.3128 12.2327 9.12528 9.04524 9.15894 9.12088 7.65894 6.24588 7.71502 6.3353 5.90252 3.8978 5.98905 3.99329 3.92655 2.11829 4.04979 2.20696 1.92479 1.01946 2.12275 1.09191-0.127246 0.65441ZM19.085 30.2589 23.875 37.8125 14.9582 37.1123Z" transform="matrix(-4.37114e-08 1 1 4.37114e-08 482.5 439.5)"/><path d="M0.178429-0.642345 2.57047 0.0221105 4.8667 1.98066 7.00852 4.90132 8.86485 8.61398 10.3895 12.9338 11.5925 17.8091 12.3519 22.9982 12.6034 28.2808 12.8534 33.5308 12.8471 33.466 13.5971 38.591 13.5843 38.5258 14.7718 43.2758 14.7518 43.2104 16.3143 47.5229 16.2838 47.4519 18.0963 51.0769 17.9367 50.8713 19.1103 51.8886 18.2369 52.8961 16.9631 51.7918 15.0739 48.0135 13.4865 43.6324 12.2827 38.8169 11.5231 33.6268 11.2716 28.3442 11.0216 23.0942 11.0279 23.159 10.2779 18.034 10.2902 18.0972 9.10275 13.2847 9.12134 13.3469 7.62134 9.09688 7.65372 9.17314 5.84122 5.54814 5.8999 5.64424 3.8374 2.83174 3.94237 2.94472 1.81737 1.13222 2.07157 1.26735-0.178429 0.642345ZM20.1354 48.4375 23.875 56.5625 15.1313 54.6792Z" transform="matrix(-4.37114e-08 1 1 4.37114e-08 426.5 354.5)"/><path d="M615.9 354.678 615.235 357.071 613.277 359.367 610.356 361.509 606.642 363.366 602.26 364.89 597.386 366.093 592.196 366.852 586.851 367.103 581.539 367.353 581.604 367.347 576.479 368.097 576.544 368.084 571.794 369.272 571.859 369.252 567.547 370.814 567.618 370.784 563.993 372.596 564.194 372.442 563.137 373.634 562.139 372.75 563.281 371.461 567.056 369.574 571.437 367.987 576.253 366.783 581.443 366.023 586.789 365.772 592.101 365.522 592.036 365.528 597.161 364.778 597.098 364.79 601.91 363.603 601.851 363.62 606.163 362.12 606.084 362.154 609.709 360.341 609.613 360.4 612.426 358.337 612.313 358.442 614.125 356.317 613.99 356.572 614.615 354.322ZM566.586 374.671 558.445 378.375 560.367 369.64Z"/><path d="M521.167 354.5 521.167 371.694 519.833 371.694 519.833 354.5ZM524.5 370.361 520.5 378.361 516.5 370.361Z"/><path d="M189.326 125.222 378.303 125.222 378.303 155.458 189.326 155.458Z" fill="#DAE3F3" fill-rule="evenodd"/><path d="M189.326 155.458 283.814 155.458 283.814 185.694 189.326 185.694Z" fill="#F2F2F2" fill-rule="evenodd"/><path d="M283.814 155.458 378.303 155.458 378.303 185.694 283.814 185.694Z" fill="#F2F2F2" fill-rule="evenodd"/><path d="M283.814 154.792 283.814 186.361" stroke="#000000" stroke-width="1.33333" stroke-linejoin="round" stroke-miterlimit="10" fill="none" fill-rule="evenodd"/><path d="M188.66 155.458 378.969 155.458" stroke="#000000" stroke-width="1.33333" stroke-linejoin="round" stroke-miterlimit="10" fill="none" fill-rule="evenodd"/><path d="M189.326 124.555 189.326 186.361" stroke="#000000" stroke-width="1.33333" stroke-linejoin="round" stroke-miterlimit="10" fill="none" fill-rule="evenodd"/><path d="M378.303 124.555 378.303 186.361" stroke="#000000" stroke-width="1.33333" stroke-linejoin="round" stroke-miterlimit="10" fill="none" fill-rule="evenodd"/><path d="M188.66 125.222 378.969 125.222" stroke="#000000" stroke-width="1.33333" stroke-linejoin="round" stroke-miterlimit="10" fill="none" fill-rule="evenodd"/><path d="M188.66 185.694 378.969 185.694" stroke="#000000" stroke-width="1.33333" stroke-linejoin="round" stroke-miterlimit="10" fill="none" fill-rule="evenodd"/><text font-family="Times New Roman,Times New Roman_MSFontService,sans-serif" font-weight="400" font-size="16" transform="translate(257.064 146)">Matcher<tspan x="-42.8274" y="30">pattern</tspan><tspan x="44.5774" y="30">distances</tspan></text><path d="M0.113271-0.656973 3.84433-0.0136869 7.62896 2.00913 11.2869 5.15367 14.847 9.34954 18.2623 14.5357 21.4752 20.6464 24.5554 27.5612 27.381 35.2216 30.015 43.5628 32.3978 52.4041 34.466 61.8053 36.2835 71.6445 37.6621 81.7962 38.7271 92.1962 39.3537 102.722 39.4472 106.694 38.1142 106.726 38.021 102.766 38.022 102.79 37.397 92.2896 37.3993 92.3179 36.3368 81.9429 36.3394 81.9647 34.9644 71.8397 34.9694 71.8711 33.1569 62.0586 33.1614 62.0807 31.0989 52.7057 31.1063 52.736 28.7313 43.9235 28.7393 43.9508 26.1143 35.6383 26.1245 35.6682 23.312 28.0432 23.3285 28.0838 20.266 21.2088 20.2849 21.2477 17.0974 15.1852 17.1307 15.2417 13.7557 10.1167 13.8042 10.1813 10.3042 6.05632 10.3779 6.13054 6.81541 3.06804 6.93575 3.15045 3.31075 1.21295 3.51173 1.28197-0.113271 0.656973ZM42.7482 105.283 38.9375 113.375 34.7504 105.471Z" transform="matrix(-4.37114e-08 1 1 4.37114e-08 331.5 186.5)"/><path d="M0.0213566-0.666324 9.7907-0.353205 19.5165 0.525253 29.2439 1.96868 38.9042 4.03875 48.4999 6.54741 57.9721 9.62119 67.3158 13.1956 76.5958 17.2713 85.6222 21.7845 94.5236 26.674 103.237 32.0652 111.761 37.831 120.034 43.9734 128.061 50.4952 143.284 64.4652 157.318 79.6894 163.841 87.7807 169.919 96.0523 175.684 104.512 181.075 113.225 186.029 122.129 190.48 131.219 194.554 140.497 198.129 149.84 201.203 159.313 203.711 168.908 205.781 178.569 207.225 188.296 208.103 198.022 208.203 201.128 206.87 201.171 206.771 198.084 206.774 198.122 205.899 188.435 205.903 188.473 204.466 178.785 204.473 178.827 202.411 169.202 202.417 169.231 199.917 159.669 199.928 159.706 196.866 150.268 196.877 150.301 193.315 140.988 193.327 141.018 189.265 131.768 189.276 131.793 184.839 122.731 184.855 122.762 179.917 113.887 179.933 113.913 174.558 105.226 174.574 105.25 168.824 96.8129 168.838 96.8323 162.775 88.5823 162.793 88.6059 156.293 80.5434 156.322 80.5769 142.322 65.3894 142.362 65.4287 127.174 51.4912 127.205 51.5174 119.205 45.0174 119.228 45.0353 110.978 38.9103 111.001 38.9272 102.501 33.1772 102.524 33.1919 93.8367 27.8169 93.8665 27.8343 84.9915 22.9593 85.0144 22.9713 76.0144 18.4713 76.0444 18.4854 66.7944 14.4229 66.8243 14.4352 57.5118 10.8727 57.5442 10.8841 48.1067 7.82161 48.1439 7.83249 38.5814 5.33249 38.6103 5.33937 28.9853 3.27687 29.0271 3.28445 19.3396 1.84695 19.3775 1.85146 9.69003 0.976464 9.72864 0.978824-0.0213566 0.666324ZM211.492 199.688 207.75 207.812 203.496 199.945Z" transform="matrix(-4.37114e-08 1 1 4.37114e-08 237.5 186.5)"/><path d="M707.997 209.555 859.178 209.555 859.178 239.792 707.997 239.792Z" fill="#FBE5D6" fill-rule="evenodd"/><path d="M707.997 239.792 783.587 239.792 783.587 270.028 707.997 270.028Z" fill="#F2F2F2" fill-rule="evenodd"/><path d="M783.587 239.125 783.587 270.695" stroke="#000000" stroke-width="1.33333" stroke-linejoin="round" stroke-miterlimit="10" fill="none" fill-rule="evenodd"/><path d="M707.33 239.792 859.844 239.792" stroke="#000000" stroke-width="1.33333" stroke-linejoin="round" stroke-miterlimit="10" fill="none" fill-rule="evenodd"/><path d="M707.997 208.889 707.997 270.695" stroke="#000000" stroke-width="1.33333" stroke-linejoin="round" stroke-miterlimit="10" fill="none" fill-rule="evenodd"/><path d="M859.178 208.889 859.178 270.695" stroke="#000000" stroke-width="1.33333" stroke-linejoin="round" stroke-miterlimit="10" fill="none" fill-rule="evenodd"/><path d="M707.33 209.555 859.844 209.555" stroke="#000000" stroke-width="1.33333" stroke-linejoin="round" stroke-miterlimit="10" fill="none" fill-rule="evenodd"/><path d="M707.33 270.028 859.844 270.028" stroke="#000000" stroke-width="1.33333" stroke-linejoin="round" stroke-miterlimit="10" fill="none" fill-rule="evenodd"/><text font-family="Times New Roman,Times New Roman_MSFontService,sans-serif" font-weight="400" font-size="16" transform="translate(768.087 230)">CFG<tspan x="-37.8787" y="30">rules</tspan><tspan x="45.2952" y="30">…</tspan></text><path d="M707.997 293.889 859.178 293.889 859.178 324.125 707.997 324.125Z" fill="#FBE5D6" fill-rule="evenodd"/><path d="M707.997 324.125 783.587 324.125 783.587 354.361 707.997 354.361Z" fill="#F2F2F2" fill-rule="evenodd"/><path d="M783.587 324.125 859.178 324.125 859.178 354.361 783.587 354.361Z" fill="#F2F2F2" fill-rule="evenodd"/><path d="M783.587 323.458 783.587 355.028" stroke="#000000" stroke-width="1.33333" stroke-linejoin="round" stroke-miterlimit="10" fill="none" fill-rule="evenodd"/><path d="M707.33 324.125 859.844 324.125" stroke="#000000" stroke-width="1.33333" stroke-linejoin="round" stroke-miterlimit="10" fill="none" fill-rule="evenodd"/><path d="M707.997 293.222 707.997 355.028" stroke="#000000" stroke-width="1.33333" stroke-linejoin="round" stroke-miterlimit="10" fill="none" fill-rule="evenodd"/><path d="M859.178 293.222 859.178 355.028" stroke="#000000" stroke-width="1.33333" stroke-linejoin="round" stroke-miterlimit="10" fill="none" fill-rule="evenodd"/><path d="M707.33 293.889 859.844 293.889" stroke="#000000" stroke-width="1.33333" stroke-linejoin="round" stroke-miterlimit="10" fill="none" fill-rule="evenodd"/><path d="M707.33 354.361 859.844 354.361" stroke="#000000" stroke-width="1.33333" stroke-linejoin="round" stroke-miterlimit="10" fill="none" fill-rule="evenodd"/><text font-family="Times New Roman,Times New Roman_MSFontService,sans-serif" font-weight="400" font-size="16" transform="translate(768.421 314)">Rule<tspan x="-37.712" y="31">LHS</tspan><tspan x="37.4619" y="31">RHS</tspan></text><path d="M689.099 378.222 878.075 378.222 878.075 408.459 689.099 408.459Z" fill="#FBE5D6" fill-rule="evenodd"/><path d="M689.099 408.459 783.587 408.459 783.587 438.695 689.099 438.695Z" fill="#F2F2F2" fill-rule="evenodd"/><path d="M783.587 407.792 783.587 439.361" stroke="#000000" stroke-width="1.33333" stroke-linejoin="round" stroke-miterlimit="10" fill="none" fill-rule="evenodd"/><path d="M688.432 408.459 878.742 408.459" stroke="#000000" stroke-width="1.33333" stroke-linejoin="round" stroke-miterlimit="10" fill="none" fill-rule="evenodd"/><path d="M689.099 377.556 689.099 439.361" stroke="#000000" stroke-width="1.33333" stroke-linejoin="round" stroke-miterlimit="10" fill="none" fill-rule="evenodd"/><path d="M878.075 377.556 878.075 439.361" stroke="#000000" stroke-width="1.33333" stroke-linejoin="round" stroke-miterlimit="10" fill="none" fill-rule="evenodd"/><path d="M688.432 378.222 878.742 378.222" stroke="#000000" stroke-width="1.33333" stroke-linejoin="round" stroke-miterlimit="10" fill="none" fill-rule="evenodd"/><path d="M688.432 438.695 878.742 438.695" stroke="#000000" stroke-width="1.33333" stroke-linejoin="round" stroke-miterlimit="10" fill="none" fill-rule="evenodd"/><text font-family="Times New Roman,Times New Roman_MSFontService,sans-serif" font-weight="400" font-size="16" transform="translate(763.647 399)">Token<tspan x="-56.8041" y="30">identifier</tspan><tspan x="59.184" y="30">…</tspan></text><path d="M905.407 125.222 1094.38 125.222 1094.38 155.458 905.407 155.458Z" fill="#FBE5D6" fill-rule="evenodd"/><path d="M905.407 155.458 999.896 155.458 999.896 185.694 905.407 185.694Z" fill="#F2F2F2" fill-rule="evenodd"/><path d="M999.896 154.792 999.896 186.361" stroke="#000000" stroke-width="1.33333" stroke-linejoin="round" stroke-miterlimit="10" fill="none" fill-rule="evenodd"/><path d="M904.741 155.458 1095.05 155.458" stroke="#000000" stroke-width="1.33333" stroke-linejoin="round" stroke-miterlimit="10" fill="none" fill-rule="evenodd"/><path d="M905.407 124.555 905.407 186.361" stroke="#000000" stroke-width="1.33333" stroke-linejoin="round" stroke-miterlimit="10" fill="none" fill-rule="evenodd"/><path d="M1094.38 124.555 1094.38 186.361" stroke="#000000" stroke-width="1.33333" stroke-linejoin="round" stroke-miterlimit="10" fill="none" fill-rule="evenodd"/><path d="M904.741 125.222 1095.05 125.222" stroke="#000000" stroke-width="1.33333" stroke-linejoin="round" stroke-miterlimit="10" fill="none" fill-rule="evenodd"/><path d="M904.741 185.694 1095.05 185.694" stroke="#000000" stroke-width="1.33333" stroke-linejoin="round" stroke-miterlimit="10" fill="none" fill-rule="evenodd"/><text font-family="Times New Roman,Times New Roman_MSFontService,sans-serif" font-weight="400" font-size="16" transform="translate(977.562 146)">Article<tspan x="-60.0773" y="30">paragraphs</tspan><tspan x="61.5774" y="30">…</tspan></text><path d="M905.407 209.555 1094.38 209.555 1094.38 239.792 905.407 239.792Z" fill="#FBE5D6" fill-rule="evenodd"/><path d="M905.407 239.792 999.896 239.792 999.896 270.028 905.407 270.028Z" fill="#F2F2F2" fill-rule="evenodd"/><path d="M999.896 239.125 999.896 270.695" stroke="#000000" stroke-width="1.33333" stroke-linejoin="round" stroke-miterlimit="10" fill="none" fill-rule="evenodd"/><path d="M904.741 239.792 1095.05 239.792" stroke="#000000" stroke-width="1.33333" stroke-linejoin="round" stroke-miterlimit="10" fill="none" fill-rule="evenodd"/><path d="M905.407 208.889 905.407 270.695" stroke="#000000" stroke-width="1.33333" stroke-linejoin="round" stroke-miterlimit="10" fill="none" fill-rule="evenodd"/><path d="M1094.38 208.889 1094.38 270.695" stroke="#000000" stroke-width="1.33333" stroke-linejoin="round" stroke-miterlimit="10" fill="none" fill-rule="evenodd"/><path d="M904.741 209.555 1095.05 209.555" stroke="#000000" stroke-width="1.33333" stroke-linejoin="round" stroke-miterlimit="10" fill="none" fill-rule="evenodd"/><path d="M904.741 270.028 1095.05 270.028" stroke="#000000" stroke-width="1.33333" stroke-linejoin="round" stroke-miterlimit="10" fill="none" fill-rule="evenodd"/><text font-family="Times New Roman,Times New Roman_MSFontService,sans-serif" font-weight="400" font-size="16" transform="translate(967.396 230)">Paragraph<tspan x="-45.4941" y="30">sentences</tspan><tspan x="71.744" y="30">…</tspan></text><path d="M952.651 293.889 1047.14 293.889 1047.14 324.125 952.651 324.125Z" fill="#FBE5D6" fill-rule="evenodd"/><path d="M952.651 324.125 1047.14 324.125 1047.14 354.361 952.651 354.361Z" fill="#F2F2F2" fill-rule="evenodd"/><path d="M951.985 324.125 1047.81 324.125" stroke="#000000" stroke-width="1.33333" stroke-linejoin="round" stroke-miterlimit="10" fill="none" fill-rule="evenodd"/><path d="M952.651 293.222 952.651 355.028" stroke="#000000" stroke-width="1.33333" stroke-linejoin="round" stroke-miterlimit="10" fill="none" fill-rule="evenodd"/><path d="M1047.14 293.222 1047.14 355.028" stroke="#000000" stroke-width="1.33333" stroke-linejoin="round" stroke-miterlimit="10" fill="none" fill-rule="evenodd"/><path d="M951.985 293.889 1047.81 293.889" stroke="#000000" stroke-width="1.33333" stroke-linejoin="round" stroke-miterlimit="10" fill="none" fill-rule="evenodd"/><path d="M951.985 354.361 1047.81 354.361" stroke="#000000" stroke-width="1.33333" stroke-linejoin="round" stroke-miterlimit="10" fill="none" fill-rule="evenodd"/><text font-family="Times New Roman,Times New Roman_MSFontService,sans-serif" font-weight="400" font-size="16" transform="translate(970.896 314)">Sentence<tspan x="8.08331" y="31">tokens</tspan></text><path d="M905.407 40.8886 1094.38 40.8886 1094.38 71.1248 905.407 71.1248Z" fill="#FBE5D6" fill-rule="evenodd"/><path d="M905.407 71.1248 999.896 71.1248 999.896 101.361 905.407 101.361Z" fill="#E2F0D9" fill-rule="evenodd"/><path d="M999.896 70.4582 999.896 102.028" stroke="#000000" stroke-width="1.33333" stroke-linejoin="round" stroke-miterlimit="10" fill="none" fill-rule="evenodd"/><path d="M904.741 71.1248 1095.05 71.1248" stroke="#000000" stroke-width="1.33333" stroke-linejoin="round" stroke-miterlimit="10" fill="none" fill-rule="evenodd"/><path d="M905.407 40.2219 905.407 102.028" stroke="#000000" stroke-width="1.33333" stroke-linejoin="round" stroke-miterlimit="10" fill="none" fill-rule="evenodd"/><path d="M1094.38 40.2219 1094.38 102.028" stroke="#000000" stroke-width="1.33333" stroke-linejoin="round" stroke-miterlimit="10" fill="none" fill-rule="evenodd"/><path d="M904.741 40.8886 1095.05 40.8886" stroke="#000000" stroke-width="1.33333" stroke-linejoin="round" stroke-miterlimit="10" fill="none" fill-rule="evenodd"/><path d="M904.741 101.361 1095.05 101.361" stroke="#000000" stroke-width="1.33333" stroke-linejoin="round" stroke-miterlimit="10" fill="none" fill-rule="evenodd"/><text font-family="Times New Roman,Times New Roman_MSFontService,sans-serif" font-weight="400" font-size="16" transform="translate(979.216 61)">Writer<tspan x="-59.1475" y="31">generate()</tspan><tspan x="59.924" y="31">…</tspan></text><path d="M0.127246-0.65441 2.48203-0.196536 4.76691 1.08031 6.93385 3.05025 8.81657 5.58218 10.3602 8.54089 11.5788 11.8116 12.3491 15.3422 12.6025 18.89 12.8525 22.39 12.8388 22.2954 13.5888 25.7329 13.5622 25.6423 14.7497 28.8298 14.7107 28.7442 16.2732 31.6192 16.155 31.4622 18.6314 33.8982 17.6963 34.8487 15.1492 32.3431 13.5167 29.3394 12.2962 26.0634 11.5259 22.5328 11.2725 18.985 11.0225 15.485 11.0362 15.5796 10.2862 12.1421 10.3128 12.2327 9.12528 9.04524 9.15894 9.12088 7.65894 6.24588 7.71502 6.3353 5.90252 3.8978 5.98905 3.99329 3.92655 2.11829 4.04979 2.20696 1.92479 1.01946 2.12275 1.09191-0.127246 0.65441ZM19.085 30.2589 23.875 37.8125 14.9582 37.1123Z" transform="matrix(-4.37114e-08 1 1 4.37114e-08 746.5 270.5)"/><path d="M746.58 354.566 746.137 358.997 745.045 362.979 744.312 364.579 743.417 365.886 742.365 366.788 741.35 367.079 740.475 367.329 740.744 367.177 739.931 367.927 740.029 367.814 739.217 369.001 739.277 368.893 738.589 370.456 738.633 370.317 738.31 371.943 737.003 371.683 737.34 369.986 738.081 368.3 738.972 366.999 739.956 366.09 740.984 365.796 741.859 365.546 741.608 365.681 742.483 364.931 742.366 365.061 743.179 363.874 743.123 363.972 743.811 362.472 743.774 362.574 744.836 358.699 744.816 358.809 745.253 354.434ZM741.829 371.207 736.479 378.375 733.955 369.794Z"/><path d="M0.14462-0.650791 2.52519-0.121777 4.82542 1.50192 6.97846 3.98117 8.84564 7.07169 10.3787 10.7126 11.5874 14.7842 12.3509 19.1106 12.6031 23.5875 12.8531 28.025 12.844 27.9466 13.594 32.1966 13.5766 32.1228 14.7641 36.1228 14.7355 36.0447 16.298 39.6072 16.2129 39.4647 18.9615 42.9845 17.9106 43.8052 15.1106 40.2194 13.4978 36.5421 12.2876 32.4658 11.5241 28.1394 11.2719 23.6625 11.0219 19.225 11.031 19.3034 10.281 15.0534 10.2984 15.1272 9.1109 11.1272 9.13558 11.1962 7.63558 7.6337 7.67939 7.71974 5.86689 4.71974 5.93414 4.81212 3.87164 2.43712 3.99054 2.54465 1.86554 1.04465 2.10538 1.15079-0.14462 0.650791ZM19.6613 39.3604 23.875 47.25 15.0352 45.8872Z" transform="matrix(-4.37114e-08 1 1 4.37114e-08 953.5 101.5)"/><path d="M0.14462-0.650791 2.52519-0.121777 4.82542 1.50192 6.97846 3.98117 8.84564 7.07169 10.3787 10.7126 11.5874 14.7842 12.3509 19.1106 12.6031 23.5875 12.8531 28.025 12.844 27.9466 13.594 32.1966 13.5766 32.1228 14.7641 36.1228 14.7355 36.0447 16.298 39.6072 16.2129 39.4647 18.9615 42.9845 17.9106 43.8052 15.1106 40.2194 13.4978 36.5421 12.2876 32.4658 11.5241 28.1394 11.2719 23.6625 11.0219 19.225 11.031 19.3034 10.281 15.0534 10.2984 15.1272 9.1109 11.1272 9.13558 11.1962 7.63558 7.6337 7.67939 7.71974 5.86689 4.71974 5.93414 4.81212 3.87164 2.43712 3.99054 2.54465 1.86554 1.04465 2.10538 1.15079-0.14462 0.650791ZM19.6613 39.3604 23.875 47.25 15.0352 45.8872Z" transform="matrix(-4.37114e-08 1 1 4.37114e-08 953.5 186.5)"/><path d="M0.14462-0.650791 2.52519-0.121777 4.82542 1.50192 6.97846 3.98117 8.84564 7.07169 10.3787 10.7126 11.5874 14.7842 12.3509 19.1106 12.6031 23.5875 12.8531 28.025 12.844 27.9466 13.594 32.1966 13.5766 32.1228 14.7641 36.1228 14.7355 36.0447 16.298 39.6072 16.2129 39.4647 18.9615 42.9845 17.9106 43.8052 15.1106 40.2194 13.4978 36.5421 12.2876 32.4658 11.5241 28.1394 11.2719 23.6625 11.0219 19.225 11.031 19.3034 10.281 15.0534 10.2984 15.1272 9.1109 11.1272 9.13558 11.1962 7.63558 7.6337 7.67939 7.71974 5.86689 4.71974 5.93414 4.81212 3.87164 2.43712 3.99054 2.54465 1.86554 1.04465 2.10538 1.15079-0.14462 0.650791ZM19.6613 39.3604 23.875 47.25 15.0352 45.8872Z" transform="matrix(-4.37114e-08 1 1 4.37114e-08 953.5 270.5)"/><path d="M1001.17 354.771 1000.61 356.041 999.045 357.32 996.626 358.432 993.512 359.512 989.6 360.585 985.072 361.591 979.921 362.533 974.217 363.348 968.02 364.162 961.379 364.914 947.108 366.103 931.773 366.854 916.012 367.104 900.262 367.354 900.285 367.353 885.035 368.103 885.057 368.102 870.744 369.289 870.764 369.288 864.139 370.038 864.151 370.036 857.964 370.849 857.979 370.846 852.354 371.721 852.372 371.718 847.247 372.656 847.27 372.651 842.707 373.651 842.733 373.645 838.921 374.645 839.07 374.586 837.484 375.446 836.849 374.274 838.505 373.376 842.408 372.352 846.995 371.346 852.141 370.405 857.782 369.528 863.983 368.713 870.624 367.962 884.958 366.772 900.23 366.021 915.991 365.771 931.741 365.521 931.719 365.522 947.032 364.772 947.009 364.773 961.259 363.586 961.239 363.588 967.864 362.838 967.852 362.839 974.04 362.027 974.032 362.028 979.72 361.215 979.694 361.219 984.819 360.282 984.795 360.287 989.295 359.287 989.263 359.295 993.138 358.232 993.096 358.245 996.158 357.183 996.098 357.207 998.411 356.144 998.267 356.234 999.642 355.109 999.455 355.354 999.955 354.229ZM840.408 377.556 831.502 378.375 836.19 370.758Z"/><path d="M822.917 354.627 822.46 356.982 821.183 359.267 819.213 361.434 816.681 363.317 813.722 364.86 810.451 366.079 806.921 366.849 803.373 367.103 799.873 367.353 799.968 367.339 796.53 368.089 796.621 368.062 793.433 369.25 793.519 369.211 790.644 370.773 790.801 370.655 788.365 373.131 787.414 372.196 789.92 369.649 792.924 368.017 796.2 366.796 799.73 366.026 803.278 365.773 806.778 365.523 806.683 365.536 810.121 364.786 810.03 364.813 813.218 363.625 813.142 363.659 816.017 362.159 815.928 362.215 818.365 360.403 818.27 360.489 820.145 358.427 820.056 358.55 821.244 356.425 821.171 356.623 821.609 354.373ZM792.004 373.585 784.451 378.375 785.151 369.458Z"/><rect x="105" y="346" width="30" height="30" fill="#DAE3F3"/><rect x="105" y="381" width="30" height="30" fill="#FFF2CC"/><rect x="105" y="417" width="30" height="30" fill="#F2F2F2"/><rect x="105" y="452" width="30" height="30" fill="#E2F0D9"/><text font-family="Times New Roman,Times New Roman_MSFontService,sans-serif" font-weight="400" font-size="16" transform="translate(145.057 367)">C struct<tspan x="-0.146347" y="35">Python class</tspan><tspan x="-0.146347" y="70">field</tspan><tspan x="-0.146347" y="106">method</tspan><tspan font-weight="700" font-size="19" x="-10.1345" y="-38">Legend</tspan></text><rect x="93" y="306" width="143" height="187" stroke="#000000" stroke-width="2" stroke-miterlimit="8" fill="none"/></g></svg>